<?xml version="1.0" encoding="UTF-8" standalone="no"?>
<svg
   xmlns:dc="http://purl.org/dc/elements/1.1/"
   xmlns:cc="http://creativecommons.org/ns#"
   xmlns:rdf="http://www.w3.org/1999/02/22-rdf-syntax-ns#"
   xmlns:svg="http://www.w3.org/2000/svg"
   xmlns="http://www.w3.org/2000/svg"
   xmlns:sodipodi="http://sodipodi.sourceforge.net/DTD/sodipodi-0.dtd"
   xmlns:inkscape="http://www.inkscape.org/namespaces/inkscape"
   width="100%"
   height="100%"
   viewBox="0 0 1280 1150"
   version="1.1"
   xml:space="preserve"
   style="fill-rule:evenodd;clip-rule:evenodd;stroke-linecap:round;stroke-linejoin:round;stroke-miterlimit:1.41421;"
   id="svg149"
   sodipodi:docname="avm-fritz-box-7320.svg"
   inkscape:version="0.92.4 5da689c313, 2019-01-14"><metadata
   id="metadata155"><rdf:RDF><cc:Work
       rdf:about=""><dc:format>image/svg+xml</dc:format><dc:type
         rdf:resource="http://purl.org/dc/dcmitype/StillImage" /><dc:title /></cc:Work></rdf:RDF></metadata><defs
   id="defs153" /><sodipodi:namedview
   pagecolor="#ffffff"
   bordercolor="#666666"
   borderopacity="1"
   objecttolerance="10"
   gridtolerance="10"
   guidetolerance="10"
   inkscape:pageopacity="0"
   inkscape:pageshadow="2"
   inkscape:window-width="1920"
   inkscape:window-height="1034"
   id="namedview151"
   showgrid="false"
   inkscape:zoom="0.82086956"
   inkscape:cx="602.78246"
   inkscape:cy="546.23659"
   inkscape:window-x="0"
   inkscape:window-y="0"
   inkscape:window-maximized="1"
   inkscape:current-layer="svg149" />
    <path
   d="M1012,952L1030,951L1056,940L1080,400C670.65,340.658 370.032,363.267 180,420L208,965L242,968L1012,952Z"
   style="fill:#241c1c;stroke:rgb(125, 126, 131);stroke-width:1px"
   id="path2" />
    
    
    
    
    <g
   id="Buttons">
        <g
   transform="matrix(1.10526,0,0,1.10526,95.9474,-56.5526)"
   id="g76">
            <circle
   cx="437.5"
   cy="437.5"
   r="47.5"
   style="stroke:#000000;stroke-width:0.89999998px"
   id="circle74" />
        </g>
        <g
   transform="matrix(1.10526,0,0,1.10526,-47.5526,-50.5526)"
   id="g80">
            <circle
   cx="437.5"
   cy="437.5"
   r="47.5"
   style="stroke:#000000;stroke-width:0.89999998px"
   id="circle78" />
        </g>
        <g
   transform="translate(-1.5,-4.5)"
   id="g84">
            <circle
   cx="437.5"
   cy="437.5"
   r="47.5"
   style="fill:#eeeef0;stroke:#000000;stroke-width:1px"
   id="circle82" />
        </g>
        <g
   transform="translate(142,-10.5)"
   id="g88">
            <circle
   cx="437.5"
   cy="437.5"
   r="47.5"
   style="fill:#eeeef0;stroke:#000000;stroke-width:1px"
   id="circle86" />
        </g>
        <g
   transform="matrix(1.52484,0,0,1,-285.279,-3)"
   id="g94">
            <text
   x="543"
   y="440"
   style="font-stretch:condensed;font-size:27.7689991px;font-family:Swiss911BT-ExtraCompressed, 'Swiss911 XCm BT', sans-serif"
   id="text92"><tspan
     x="579.81403"
     y="440"
     id="tspan90" /></text>




        </g>
        <g
   transform="matrix(1.52484,0,0,1,-420.302,2.99322)"
   id="g98">
            <text
   x="543"
   y="440"
   style="font-stretch:condensed;font-size:27.7689991px;font-family:Swiss911BT-ExtraCompressed, 'Swiss911 XCm BT', sans-serif"
   id="text96" />




        </g>
    </g>
    
    <path
   d="M434,1002.1C448.782,883.262 456.025,896.68 458,1003L434,1002.1Z"
   style="fill:rgb(73,61,81);stroke:rgb(95,15,34);stroke-width:1px;"
   id="path103" />
    <g
   transform="translate(92)"
   id="g107">
        <path
   d="m 434,1003.53 c 14.782,-118.828 22.025,-106.415 24,-0.09 z"
   style="fill:#493d51;stroke:#5f0f22;stroke-width:1px"
   id="path105"
   inkscape:connector-curvature="0" />
    </g>
    <g
   transform="translate(182.686)"
   id="g111">
        <path
   d="M 434.314,1002.26 C 449.096,883.423 456.025,895.219 458,1001.54 Z"
   style="fill:#493d51;stroke:#5f0f22;stroke-width:1px"
   id="path109"
   inkscape:connector-curvature="0" />
    </g>
    <g
   transform="translate(274,-3.53511)"
   id="g115">
        <path
   d="m 434,1002.21 c 14.782,-118.838 22.025,-107.649 24,-1.33 z"
   style="fill:#493d51;stroke:#5f0f22;stroke-width:1px"
   id="path113"
   inkscape:connector-curvature="0" />
    </g>
    <g
   transform="translate(362,-13.5351)"
   id="g119">
        <path
   d="m 433.836,1006.53 c 14.782,-118.828 22.189,-108.315 24.164,-2 z"
   style="fill:#493d51;stroke:#5f0f22;stroke-width:1px"
   id="path117"
   inkscape:connector-curvature="0" />
    </g>
    <g
   transform="matrix(0,-0.994999,1.18062,0,-602.609,1368.66)"
   id="g123"
   style="fill:#ffffff;fill-opacity:1">
        <text
   x="472"
   y="900"
   style="font-size:20.82699966px;font-family:ArialMT, Arial, sans-serif;fill:#ffffff;fill-opacity:1"
   id="text121">Power/DSL</text>




    </g>
    <g
   transform="matrix(0,-1.08255,1.18062,0,-509.72466,1388.8411)"
   id="g127">
        <text
   x="455.12012"
   y="897.93628"
   style="font-size:20.82699966px;font-family:ArialMT, Arial, sans-serif;fill:#ffffff"
   id="text125">Fon</text>




    </g>
    <g
   transform="matrix(0,-1.01214,1.18062,0,-421.32333,1375.6817)"
   id="g131">
        <text
   x="472"
   y="900"
   style="font-size:20.82699966px;font-family:ArialMT, Arial, sans-serif;fill:#ffffff"
   id="text129">DECT</text>




    </g>
    <g
   transform="matrix(0,-1.08255,1.18062,0,-324.755,1406.97)"
   id="g135">
        <text
   x="472"
   y="900"
   style="font-size:20.82699966px;font-family:ArialMT, Arial, sans-serif;fill:#ffffff"
   id="text133">WLAN</text>




    </g>
    <g
   transform="matrix(0,-1.08255,1.18062,0,-236.556,1398.07)"
   id="g139">
        <text
   x="472"
   y="900"
   style="font-size:20.82699966px;font-family:ArialMT, Arial, sans-serif;fill:#ffffff"
   id="text137">Info</text>




    </g>
    <g
   transform="translate(0.282228,11.2593)"
   id="g143">
        <path
   d="m 1111,248 c -12.33,100.331 -10.63,200.664 0,301 3.9,36.859 17.12,48.012 29,0 23.97,-96.854 28.51,-196.529 0,-301 -4.94,-18.111 -26.17,-23.027 -29,0 z"
   style="fill:#61636f;stroke:#373535;stroke-width:3.5px"
   id="path141"
   inkscape:connector-curvature="0" />
    </g>
    <g
   transform="rotate(-180,701.19,413.3705)"
   id="g147">
        <path
   d="m 1105.38,247.741 c -17.02,147.041 0.35,265.416 5.62,301.259 5.39,36.67 31,49.095 37,0 12.12,-99.158 8.1,-197.238 -8,-301 -5.54,-35.678 -29.48,-44.633 -34.62,-0.259 z"
   style="fill:#61636f;stroke:#373535;stroke-width:3.5px"
   id="path145"
   inkscape:connector-curvature="0" />
    </g>
<text
   xml:space="preserve"
   style="font-style:normal;font-variant:normal;font-weight:normal;font-stretch:normal;font-size:26.66666603px;line-height:125%;font-family:Verdana;-inkscape-font-specification:Verdana;letter-spacing:0px;word-spacing:0px;fill:#000000;fill-opacity:1;stroke:none;stroke-width:1px;stroke-linecap:butt;stroke-linejoin:miter;stroke-opacity:1"
   x="400.55652"
   y="441.05804"
   id="text4667"><tspan
     sodipodi:role="line"
     id="tspan4665"
     x="400.55652"
     y="441.05804">DECT</tspan></text>



<text
   xml:space="preserve"
   style="font-style:normal;font-variant:normal;font-weight:normal;font-stretch:normal;font-size:26.66666603px;line-height:125%;font-family:Verdana;-inkscape-font-specification:Verdana;letter-spacing:0px;word-spacing:0px;fill:#000000;fill-opacity:1;stroke:none;stroke-width:1px;stroke-linecap:butt;stroke-linejoin:miter;stroke-opacity:1"
   x="541.82806"
   y="437.6124"
   id="text4671"><tspan
     sodipodi:role="line"
     id="tspan4669"
     x="541.82806"
     y="437.6124">WLAN</tspan></text>



<path
   style="fill:#483737;fill-opacity:1;stroke:#bcbcbc;stroke-width:0;stroke-miterlimit:4;stroke-dasharray:none;stroke-opacity:1"
   d="m 198.12796,971.76654 c -5.84509,-2.14144 -6.84223,-4.41831 -10.31918,-23.56294 -40.34497,-222.14601 -54.8157,-473.1617 -37.87276,-656.95783 4.0768,-44.22502 7.12316,-47.07429 55.14991,-51.58216 39.77394,-3.73325 166.07749,-12.053 238.28354,-15.69598 83.78452,-4.22716 326.75425,-5.70427 421.50424,-2.56251 122.90143,4.07523 280.77419,13.4742 330.84649,19.69697 27.4095,3.40634 29.8344,7.80948 34.5558,62.74537 12.1234,141.06382 12.0956,288.35288 -0.075,396.5747 -7.3289,65.16872 -22.9756,142.65136 -39.9689,197.92616 l -5.42,17.62955 -23.5285,7.20665 c -31.1432,9.53898 -76.785,20.84624 -103.931,25.74777 -12.0604,2.17764 -23.9261,4.5396 -26.3682,5.24882 -4.1911,1.21713 -4.2235,0.87037 -0.5777,-6.17966 19.8398,-38.36595 33.0022,-208.63139 33.0271,-427.22834 l 0.01,-87.06433 -7.1092,-7.95659 -7.1092,-7.9566 -65.3749,-1.96111 c -35.95619,-1.07862 -129.78508,-1.60072 -208.50862,-1.16023 l -143.13373,0.80089 -2.58443,-7.83089 c -1.42144,-4.30699 -7.04533,-12.29178 -12.49753,-17.74399 -28.66387,-28.66387 -74.87431,-17.49747 -88.28521,21.33346 l -3.10753,8.99776 -18.42337,0.70761 -18.42334,0.70761 -2.69592,-8.16869 c -3.36475,-10.1953 -18.0005,-24.69549 -29.95158,-29.67417 -19.23389,-8.01263 -44.3699,-2.61487 -58.64369,12.59327 -3.73509,3.97959 -8.82859,12.60319 -11.31885,19.16358 -5.1987,13.69543 -7.97849,15.02808 -32.10617,15.39191 -23.80135,0.35891 -38.25038,2.82973 -39.77451,6.80156 -0.73839,1.92421 -2.45967,25.94942 -3.82507,53.38937 -2.7707,55.68166 -7.69932,98.15932 -14.45417,124.57421 -4.84699,18.95417 -12.18708,35.1145 -16.62035,36.59225 -4.82951,1.60985 -17.34634,-24.23455 -22.6235,-46.71235 -6.79341,-28.93619 -11.55145,-69.17537 -14.09492,-119.2022 -1.56201,-30.72273 -2.94824,-41.62621 -5.51438,-43.37369 -1.88533,-1.28386 -10.88008,-1.87169 -19.98835,-1.3063 -13.1644,0.81717 -17.85229,2.21722 -22.85967,6.82709 l -6.29917,5.79911 1.53307,80.40255 c 2.08437,109.31544 8.31034,211.2192 19.94699,326.48305 4.43549,43.93458 10.45994,97.35415 12.02129,106.59428 1.07096,6.33794 0.64145,6.68981 -7.94357,6.50785 -4.99165,-0.10574 -11.98738,-1.25908 -15.54606,-2.56284 z M 289.3265,607.22385 c 9.32218,-10.30088 12.96568,-34.44094 16.37936,-108.5217 3.1844,-69.105 -2.72631,-176.5574 -12.3831,-225.11594 -3.51446,-17.67221 -11.3197,-28.58039 -21.13548,-29.53779 -6.54209,-0.6381 -8.5474,0.49414 -12.55937,7.0913 -12.40284,20.39484 -18.65285,130.80869 -12.32979,217.82058 3.50066,48.17279 11.50313,110.00105 16.00383,123.64805 5.63294,17.08013 17.67419,23.84254 26.02455,14.6155 z M 1134.6929,584.537 c 17.944,-36.68054 31.7637,-147.48648 26.6495,-213.67548 -4.8847,-63.21957 -15.8154,-115.16707 -26.1394,-124.22644 -8.339,-7.31757 -17.0128,-7.05778 -22.0704,0.66104 -14.2381,21.73011 -16.3979,244.30539 -3.1202,321.55824 4.5597,26.52992 15.861,33.71104 24.6805,15.68264 z"
   id="path6937"
   inkscape:connector-curvature="0" /><path
   style="fill:#241c1c;fill-opacity:1;stroke:#bcbcbc;stroke-width:0;stroke-miterlimit:4;stroke-dasharray:none;stroke-opacity:1"
   d="m 195.02655,968.2566 c -2.10578,-2.10576 -3.82869,-4.67421 -3.82869,-5.70763 0,-1.03341 -3.81334,-24.25357 -8.4741,-51.60033 -14.05757,-82.48226 -25.04605,-176.76815 -33.48016,-287.27436 -4.23642,-55.50682 -4.18718,-273.25228 0.0714,-315.51907 4.17292,-41.41718 6.27032,-50.09293 13.64865,-56.45673 10.70425,-9.23241 32.57545,-11.597 214.62197,-23.20371 77.56297,-4.94517 105.32779,-5.44495 306.99153,-5.52594 228.94373,-0.0919 256.72549,0.70258 427.59535,12.22867 100.153,6.75586 105.6597,8.12013 111.2915,27.57196 4.4074,15.22284 10.0639,89.85552 13.3153,175.68505 6.5156,172.00025 -7.6898,317.48086 -43.465,445.13395 l -8.9981,32.107 -8.6619,2.3546 c -4.764,1.29502 -22.915,6.33502 -40.3356,11.2 -26.6738,7.44911 -96.9595,23.34371 -103.2255,23.34371 -1.0453,0 0.5828,-7.40444 3.618,-16.45433 17.0011,-50.69056 27.7833,-205.0624 27.667,-396.11226 l -0.066,-107.61349 -7.0683,-8.52755 -7.0683,-8.52754 -208.3291,-0.82785 -208.32903,-0.82785 -2.27089,-6.51425 c -3.79539,-10.88743 -15.45856,-22.67039 -28.40924,-28.70102 -22.17229,-10.32476 -42.10788,-6.62818 -59.83011,11.09405 -6.77898,6.77897 -12.29998,14.84736 -13.31172,19.4537 -1.99758,9.09507 -2.10028,9.14235 -23.6363,10.88341 l -16.27601,1.31582 -1.50993,-6.87471 c -1.91054,-8.69854 -21.56837,-28.54227 -31.53261,-31.83076 -9.57224,-3.15912 -38.64102,-1.65657 -39.88034,2.0614 -0.50956,1.52865 -1.97659,2.13033 -3.26011,1.33709 -4.39453,-2.71598 -18.10719,10.58534 -24.61555,23.87714 -3.57811,7.30744 -7.92995,14.42698 -9.67076,15.8212 -1.74082,1.39423 -16.08699,3.58584 -31.8804,4.87026 -15.7934,1.28441 -29.8131,3.43312 -31.15488,4.77491 -1.34179,1.34178 -3.33882,14.95275 -4.43784,30.24659 l -1.99823,27.80697 -0.85484,-38.98305 -0.85485,-38.98305 -1.40976,34.11017 c -1.03153,24.95853 -1.42082,15.48002 -1.45098,-35.32839 -0.0708,-119.25766 -9.94683,-170.51069 -32.67207,-169.55608 -12.41603,0.52156 -15.44647,5.81185 -21.06304,36.77006 -5.7649,31.7758 -7.18393,158.56363 -2.34081,209.14665 7.97492,83.29246 14.32101,112.35062 26.0723,119.38277 6.47935,3.87735 15.58041,-0.10038 19.8452,-8.67334 5.97065,-12.00222 5.50059,-1.48138 -0.85613,19.16163 -5.98909,19.44918 -11.07684,30.10306 -14.37569,30.10306 -3.87999,0 -16.84928,-28.16606 -20.78653,-45.14313 -5.69057,-24.53727 -10.3272,-61.68773 -13.3711,-107.13442 -3.85329,-57.53123 -3.27771,-55.85922 -19.56044,-56.82189 -15.32739,-0.90619 -29.07,2.5429 -34.58929,8.68115 -6.54971,7.28424 -0.64275,191.14544 10.50926,327.1132 4.37383,53.32672 14.33868,152.38114 18.44418,183.34217 l 1.53461,11.57309 h -11.10384 c -6.84581,0 -12.57204,-1.4682 -14.93253,-3.8287 z M 1134.7079,585.47584 c 6.3238,-10.85949 12.9326,-35.23206 19.2921,-71.14692 4.5727,-25.82435 5.4399,-39.5312 5.4136,-85.5699 -0.027,-47.00345 0.1788,-50.13003 1.4425,-21.92796 l 1.4737,32.89195 0.501,-31.67373 c 0.6808,-43.04493 -6.3528,-101.99736 -16.8373,-141.12303 -1.9811,-7.39287 -3.113,-8.7713 -5.0017,-6.0911 -1.812,2.57127 -2.0949,1.91107 -1.0976,-2.56143 2.8436,-12.75234 -15.5577,-22.26938 -25.5585,-13.21873 -3.3505,3.03215 -4.0982,6.69799 -3.3542,16.44597 0.7583,9.93714 0.5795,10.77187 -0.8605,4.01654 -4.0219,-18.8683 -6.2807,21.92699 -6.2053,112.07627 0.073,87.71435 0.019,88.83433 -1.3765,28.01907 l -1.4528,-63.34746 -0.5481,56.2174 c -0.914,93.74821 5.652,175.49747 15.2753,190.1845 5.2829,8.0626 13.1107,6.74039 18.8943,-3.19144 z"
   id="path6941"
   inkscape:connector-curvature="0" /><path
   style="fill:#483737;fill-opacity:1;stroke:#bcbcbc;stroke-width:0;stroke-miterlimit:4;stroke-dasharray:none;stroke-opacity:1"
   d="m 459.18784,983.65839 c -0.0244,-22.32223 -3.90625,-56.61596 -7.03819,-62.16149 -2.06355,-3.65384 -2.87171,-3.06734 -5.91963,4.29603 -1.94138,4.69014 -5.35741,20.03972 -7.59117,34.11017 -6.91299,43.5447 -4.36473,38.98305 -21.77679,38.98305 -33.48748,0 -142.4637,-10.9349 -171.90824,-17.24961 -9.52648,-2.04308 -12.6154,-3.85309 -13.52762,-7.92677 -3.95383,-17.65654 -18.53343,-159.9092 -24.38864,-237.95922 -5.06091,-67.46203 -9.6582,-218.58781 -7.49739,-246.46042 2.03948,-26.30769 2.05101,-26.3211 22.67589,-26.38767 12.43292,-0.0401 12.00067,-1.3807 13.90628,43.12933 3.28094,76.63398 15.65285,129.85291 34.85343,149.92533 8.25945,8.63449 11.23984,8.43893 18.56586,-1.21822 15.39838,-20.29813 26.1572,-78.18266 29.9189,-160.96941 0.88642,-19.50826 2.26681,-36.52343 3.06751,-37.81149 0.80071,-1.28806 14.65687,-3.12813 30.79147,-4.08904 l 29.33563,-1.74711 6.50598,9.83121 c 10.8064,16.32957 22.01833,23.28449 39.31175,24.38566 27.71908,1.76501 47.62682,-8.42094 56.71438,-29.01835 4.55402,-10.32194 5.98438,-10.97996 27.62078,-12.70663 l 13.40042,-1.06941 8.52755,13.27624 c 4.69014,7.30193 11.89304,15.3564 16.00641,17.89881 8.61796,5.32662 30.87731,8.55043 43.14598,6.24881 9.51513,-1.78505 30.60659,-20.49468 36.13573,-32.05493 l 3.43901,-7.19025 42.61206,-1.53051 c 23.43666,-0.84177 114.53576,-1.66407 202.44249,-1.82733 l 159.83042,-0.29682 10.3075,7.4667 10.3075,7.4667 -1.3841,34.5619 c -0.7612,19.00905 -1.9934,66.90565 -2.7383,106.4369 -3.271,173.60987 -11.4187,281.65503 -25.1257,333.18748 -7.9551,29.90819 -12.5485,33.88831 -48.26918,41.82494 -21.56783,4.79207 -94.13232,15.33718 -131.62873,19.12833 -30.39094,3.07276 -29.04722,4.66768 -30.64899,-36.37923 -1.33624,-34.24342 -2.76772,-43.46067 -6.74959,-43.46067 -3.31634,0 -7.0153,14.39323 -12.86595,50.06337 l -5.57569,33.99383 -29.82165,2.48093 c -35.07902,2.91828 -31.16212,7.56367 -33.02929,-39.17224 -1.28454,-32.1528 -2.60034,-40.05657 -6.66854,-40.05657 -3.70334,0 -6.42918,10.09374 -12.0577,44.64961 -2.94914,18.10609 -6.03328,34.00618 -6.85366,35.33358 -0.82037,1.32739 -15.29161,3.19963 -32.15829,4.16053 l -30.6667,1.74708 -1.68803,-31.37229 c -1.89034,-35.13207 -3.96787,-47.61571 -8.15655,-49.01193 -3.68419,-1.22807 -6.91547,11.1049 -11.64351,44.44046 -2.09066,14.74046 -4.33805,29.26774 -4.99421,32.28284 -1.16209,5.3397 -2.00787,5.482 -32.59298,5.482 h -31.39992 l -1.5334,-23.75531 c -2.59417,-40.18892 -4.89269,-57.43746 -7.78106,-58.39105 -4.14034,-1.36697 -7.36972,10.27607 -13.32611,48.04517 l -5.37794,34.10119 h -32.5105 -32.5105 l -0.0195,-17.66421 z m 2.45493,-85.88453 c 0,-0.67002 -2.37521,-3.59344 -5.27825,-6.49648 l -5.27826,-5.27825 5.27826,-1.95257 c 5.96255,-2.20568 6.61301,-4.67312 2.35453,-8.9316 -2.25693,-2.25692 -2.26044,-2.92373 -0.0146,-2.92373 3.02357,0 2.90172,-6.41049 -0.21685,-11.40473 -0.98812,-1.58247 -0.6823,-3.56588 0.6796,-4.40757 4.66303,-2.88192 2.68157,-11.38997 -3.00581,-12.90639 -5.46243,-1.45643 -5.46024,-1.46749 0.60911,-3.09701 l 6.0911,-1.63536 -6.0911,-2.61155 c -5.93283,-2.54372 -5.94867,-2.61557 -0.60911,-2.76599 5.71781,-0.16105 7.89307,-8.12249 3.03897,-11.1225 -1.6331,-1.0093 -1.6331,-3.02328 0,-6.07473 3.02872,-5.65919 3.22704,-21.94027 0.26725,-21.94027 -1.19668,0 -2.80685,1.6446 -3.5782,3.65466 -0.77133,2.01006 -4.22401,3.65466 -7.67265,3.65466 h -6.27022 l 1.53615,21.31886 c 2.27242,31.5368 2.28326,56.68966 0.029,67.00212 l -1.99732,9.13665 h 10.06455 c 5.53483,0 10.06388,-0.5482 10.06388,-1.21822 z m 88.32098,-2.63947 c 0.78168,-0.78171 -0.88574,-3.72827 -3.70541,-6.54794 -3.51498,-3.51498 -5.4434,-4.17652 -6.13416,-2.10428 -0.69869,2.09612 -2.02838,1.6761 -4.33857,-1.37049 -3.03719,-4.00534 -3.33792,-3.69428 -3.40858,3.52553 -0.0721,7.36543 0.4897,7.91843 8.04399,7.91843 4.46682,0 8.76105,-0.63957 9.54273,-1.42125 z m 91.97564,-2.96435 c 0,-2.41207 -1.31568,-5.70127 -2.92373,-7.30932 -2.27401,-2.274 -2.27401,-2.92373 0,-2.92373 1.60805,0 2.92373,-2.74099 2.92373,-6.0911 0,-3.3501 -1.10569,-6.0911 -2.45708,-6.0911 -1.51457,0 -1.36706,-1.74542 0.38452,-4.55013 3.10768,-4.97621 1.36889,-12.50495 -2.88804,-12.50495 -1.56833,0 -2.03655,2.01817 -1.13051,4.87288 1.09755,3.45809 0.43783,4.87288 -2.27224,4.87288 -6.62612,0 -4.4432,-9.60443 2.88135,-12.67746 l 6.70022,-2.81112 -6.09111,-0.98956 c -3.3501,-0.54425 -7.13268,-1.99313 -8.40572,-3.21971 -1.27304,-1.22655 -3.15173,-2.23012 -4.17484,-2.23012 -2.73846,0 -1.89555,22.63147 0.97548,26.19174 1.68239,2.08627 1.59458,3.04555 -0.2788,3.04555 -1.50411,0 -2.73476,2.741 -2.73476,6.0911 0,3.35011 1.31568,6.0911 2.92373,6.0911 2.274,0 2.274,0.64973 0,2.92373 -1.60805,1.60805 -2.92373,4.89725 -2.92373,7.30932 0,3.49223 1.98524,4.3856 9.74576,4.3856 7.76053,0 9.74577,-0.89337 9.74577,-4.3856 z m 93.9464,0.89886 c 4.59771,-3.38963 4.56089,-3.5497 -1.32165,-5.7463 l -6.05107,-2.25956 5.89745,-1.87177 c 5.64957,-1.7931 5.70512,-2.0124 1.32162,-5.21768 -4.05168,-2.96267 -4.10384,-3.34592 -0.45546,-3.34592 4.7102,0 5.65678,-9.63171 1.67731,-17.06739 -1.63309,-3.05144 -1.63309,-5.06543 0,-6.07473 3.93914,-2.43454 2.8034,-8.53161 -1.58926,-8.53161 -3.75207,0 -3.75207,-0.30962 0,-4.45561 5.93602,-6.55924 5.07281,-7.72659 -5.71348,-7.72659 -5.36017,0 -9.74576,1.0964 -9.74576,2.43644 0,1.34004 1.31568,2.43644 2.92373,2.43644 2.274,0 2.274,0.64973 0,2.92373 -4.63601,4.63601 -3.4471,6.81441 3.77648,6.91959 l 6.70021,0.0975 -6.70021,3.6349 c -8.55098,4.639 -8.40643,6.14502 1.10997,11.56303 6.19662,3.52794 7.06097,4.88355 4.24837,6.66291 -1.94206,1.2286 -5.44971,2.25064 -7.79478,2.27115 -4.88319,0.0426 -6.08871,9.7607 -1.21822,9.82037 2.044,0.0251 1.8437,0.84152 -0.60911,2.48275 -3.16331,2.11664 -3.0188,2.93056 1.07479,6.05378 4.12679,3.14856 4.20442,3.60837 0.60911,3.60837 -2.26619,0 -4.12034,1.0964 -4.12034,2.43644 0,3.63551 10.56643,2.94103 15.9803,-1.0503 z m 91.22309,-8.69547 c 0,-1.34004 -4.38559,-2.43644 -9.74576,-2.43644 -5.36017,0 -9.74577,1.0964 -9.74577,2.43644 0,1.34005 4.3856,2.43645 9.74577,2.43645 5.36017,0 9.74576,-1.0964 9.74576,-2.43645 z m -275.7318,-10.6996 c 0.45676,-4.00144 -0.59581,-7.93249 -2.43644,-9.09935 -2.43347,-1.54268 -2.48208,-2.06369 -0.19516,-2.09171 1.67505,-0.0195 3.04555,-1.1337 3.04555,-2.47374 0,-1.34004 -3.28919,-2.43644 -7.30932,-2.43644 -7.15968,0 -7.30932,0.25273 -7.30932,12.34403 0,12.02883 0.17104,12.32434 6.70021,11.57309 5.35432,-0.61608 6.86175,-2.18607 7.50443,-7.81588 z m 271.46803,4.21312 c -4.49818,-1.81505 -3.69784,-5.66953 1.21822,-5.86698 3.64598,-0.14643 3.55774,-0.47464 -0.60911,-2.26518 -4.36267,-1.87469 -4.41028,-2.11188 -0.45474,-2.26518 3.49071,-0.13523 4.25788,-1.83342 3.65466,-8.08969 -0.63618,-6.59808 -1.88071,-8.04698 -7.46369,-8.68937 -5.31605,-0.6117 -6.70022,0.22707 -6.70022,4.06071 0,2.65743 -1.37049,5.32801 -3.04555,5.93461 -2.43644,0.88236 -2.43644,2.13457 0,6.2611 1.67506,2.83696 3.04555,6.81762 3.04555,8.84586 0,2.44531 2.25734,3.62291 6.70022,3.49537 3.68511,-0.10575 5.32971,-0.74536 3.65466,-1.42125 z"
   id="path6943"
   inkscape:connector-curvature="0" /><path
   style="fill:#241c1c;fill-opacity:1;stroke:#bcbcbc;stroke-width:0;stroke-miterlimit:4;stroke-dasharray:none;stroke-opacity:1"
   d="m 678.02916,434.40398 c 1.75881,-0.70382 3.86024,-0.61726 4.66985,0.19235 0.80961,0.80961 -0.62942,1.38546 -3.19783,1.27967 -2.83831,-0.11691 -3.41564,-0.69424 -1.47202,-1.47202 z"
   id="path6945"
   inkscape:connector-curvature="0" /><path
   style="fill:#241c1c;fill-opacity:1;stroke:#bcbcbc;stroke-width:0;stroke-miterlimit:4;stroke-dasharray:none;stroke-opacity:1"
   d=""
   id="path6947"
   inkscape:connector-curvature="0" /><path
   style="fill:#241c1c;fill-opacity:1;stroke:#bcbcbc;stroke-width:0;stroke-miterlimit:4;stroke-dasharray:none;stroke-opacity:1"
   d="m 458.33004,972.69441 c -1.84024,-32.51628 -6.71607,-55.50068 -10.15637,-47.87674 -1.1491,2.54644 -2.2579,5.72632 -2.464,7.06636 -0.20612,1.34004 -1.18823,4.30263 -2.18249,6.58353 -0.99424,2.28092 -1.09766,5.29602 -0.22976,6.70021 0.86786,1.40422 0.29238,2.55312 -1.27884,2.55312 -1.78829,0 -2.45554,2.73381 -1.78398,7.30932 0.59003,4.02013 0.41631,7.30933 -0.38606,7.30933 -0.80234,0 -2.86182,7.40069 -4.57659,16.44597 -1.71477,9.04529 -4.13987,17.46982 -5.3891,18.72117 -4.06558,4.07252 -144.12288,-8.12346 -182.04524,-15.85221 -7.43568,-1.51542 -13.69971,-4.3221 -14.94865,-6.69792 -2.0342,-3.86948 -5.7981,-29.28595 -8.72391,-58.90939 -0.72793,-7.37023 -3.48723,-35.32839 -6.13177,-62.12923 -11.88573,-120.45461 -16.86051,-209.11852 -17.77159,-316.73729 -0.62962,-74.37147 -0.64406,-74.31145 17.88304,-74.31145 10.5634,0 12.44588,0.76037 14.36241,5.80122 1.74265,4.58352 4.85181,40.08701 5.46626,62.41912 0.78695,28.60191 12.60659,86.63843 21.49623,105.55033 5.02233,10.68454 17.03492,26.01747 20.3834,26.01747 6.29021,0 22.05166,-30.74656 24.97961,-48.72881 0.32728,-2.01007 1.37016,-7.49206 2.3175,-12.18221 2.83468,-14.0341 2.93834,-14.72976 6.71612,-45.07415 2.00198,-16.08051 4.26642,-41.93937 5.0321,-57.46414 1.95349,-39.60854 2.79969,-42.82552 11.73497,-44.61257 4.04804,-0.80961 12.09212,-1.47202 17.87572,-1.47202 5.7836,0 11.05971,-0.88033 11.72469,-1.9563 0.66499,-1.07596 6.13316,-1.35006 12.1515,-0.60911 9.5705,1.17828 12.07207,2.83041 19.95225,13.1772 10.75383,14.11992 24.22447,20.93391 41.53175,21.00843 22.83441,0.0983 41.03523,-9.76005 49.82359,-26.98666 5.5777,-10.93318 10.52913,-13.49666 28.89753,-14.96098 11.51532,-0.91799 13.20989,-0.40842 16.86453,5.07136 15.12357,22.67636 30.91984,32.01496 54.20133,32.04332 14.24923,0.0173 30.98894,-10.60402 41.69809,-26.45755 4.19595,-6.21153 7.85114,-11.60217 8.12271,-11.97921 1.65439,-2.29708 30.32701,-2.9159 206.88212,-4.465 l 195.67816,-1.71688 11.4401,7.08836 11.4401,7.08836 -1.4312,41.41949 c -0.7872,22.78072 -2.5101,81.43803 -3.8288,130.34958 -4.8665,180.50668 -14.5071,284.48627 -29.6374,319.65758 -6.3826,14.83668 -15.1371,19.7628 -46.47962,26.15393 -35.98626,7.338 -111.99697,17.5807 -133.77546,18.02669 -19.42903,0.39787 -20.05332,0.23389 -21.63993,-5.68142 -1.51354,-5.64287 -1.71491,-5.46357 -2.73641,2.43644 -0.60646,4.69015 -1.15191,-2.43644 -1.21211,-15.83686 -0.18761,-41.75441 -0.86667,-53.47914 -3.31624,-57.25636 -2.10674,-3.24858 -2.64434,-3.24858 -4.83821,0 -1.35749,2.01006 -2.00831,5.57336 -1.44632,7.91843 0.56199,2.34508 -0.0909,4.26377 -1.45068,4.26377 -1.42067,0 -1.82212,2.59116 -0.94371,6.09111 0.9585,3.81887 0.49662,6.0911 -1.23812,6.0911 -1.63756,0 -2.29162,2.48614 -1.6025,6.0911 0.64042,3.35011 0.3967,6.0911 -0.54157,6.0911 -0.9383,0 -3.16521,9.38044 -4.94873,20.84543 -2.18225,14.02805 -4.50191,21.50717 -7.09282,22.8688 -2.11753,1.11285 -14.99003,2.80763 -28.60554,3.76618 -22.63576,1.5936 -24.95466,1.35656 -27.08133,-2.76816 -2.79009,-5.41144 -6.23927,-38.72365 -5.7492,-55.52585 0.21416,-7.33993 -0.84086,-12.78852 -2.70525,-13.97224 -4.81711,-3.05839 -7.35832,-2.34366 -5.82977,1.63966 0.77133,2.01006 0.22147,3.65466 -1.22168,3.65466 -1.58242,0 -2.01725,2.41797 -1.09535,6.0911 0.96344,3.83859 0.49798,6.0911 -1.25864,6.0911 -1.80779,0 -2.26514,2.6114 -1.30133,7.43044 0.81735,4.08674 0.53767,6.84428 -0.62154,6.12786 -1.15918,-0.71643 -3.44415,7.2891 -5.07771,17.79007 -1.63354,10.50096 -3.76445,20.37797 -4.73534,21.94892 -1.79678,2.90725 -34.38632,7.56168 -53.18073,7.59523 l -10.35487,0.0185 -0.17129,-17.6642 c -0.11232,-11.58574 -0.85297,-15.98739 -2.1524,-12.79131 -1.26604,3.11394 -1.95017,-1.72313 -1.89528,-13.40043 0.0941,-20.03207 -2.36037,-34.11017 -5.94716,-34.11017 -1.26702,0 -1.62608,1.0964 -0.79788,2.43645 0.82819,1.34004 0.21684,2.43644 -1.35859,2.43644 -1.66486,0 -2.33077,2.04064 -1.59011,4.87288 0.70086,2.68008 0.15617,4.87288 -1.2106,4.87288 -1.37508,0 -2.00575,3.26451 -1.41209,7.30932 0.59004,4.02013 0.0419,7.30932 -1.21822,7.30932 -1.26005,0 -1.80825,3.2892 -1.21822,7.30933 0.59004,4.02012 0.22074,7.30932 -0.82071,7.30932 -1.04141,0 -2.64581,6.64977 -3.56534,14.77725 -0.91952,8.12751 -3.24507,16.35049 -5.16789,18.27331 -2.64629,2.64636 -10.55992,3.49606 -32.55928,3.49606 h -29.06325 l -0.0482,-12.79133 c -0.0266,-7.03522 -1.23859,-20.4661 -2.69344,-29.84639 -1.45487,-9.3803 -2.84269,-20.60262 -3.08407,-24.93846 -0.24145,-4.33587 -1.77032,-9.21484 -3.39764,-10.84216 -3.02703,-3.02704 -3.24246,-2.70199 -3.93337,5.93422 -0.134,1.67505 -1.04296,3.64425 -2.01993,4.37602 -0.97696,0.73176 -4.13849,16.35543 -7.02557,34.71927 l -5.24929,33.38883 h -32.19464 -32.19464 z m 268.88477,-56.64725 c 0,-1.34004 -1.16111,-2.43644 -2.58024,-2.43644 -1.41913,0 -1.90262,1.0964 -1.07442,2.43644 0.82819,1.34005 1.9893,2.43644 2.58024,2.43644 0.59093,0 1.07442,-1.09639 1.07442,-2.43644 z M 459.20633,896.13837 c 0,-1.56953 -1.81451,-4.85872 -4.03228,-7.30932 -3.63766,-4.01957 -3.65171,-4.45562 -0.14378,-4.45562 5.27453,0 7.6159,-4.38279 4.40697,-8.24932 -1.44379,-1.73967 -1.88457,-3.90352 -0.97953,-4.80856 3.31885,-3.31885 2.61009,-23.71563 -0.9477,-27.27342 -3.0752,-3.0752 -2.95876,-3.53452 0.91318,-3.60211 4.27101,-0.0746 4.27269,-0.20271 0.0448,-3.40858 -3.03218,-2.29927 -3.46023,-3.64199 -1.38193,-4.33477 3.45502,-1.15165 5.51479,-35.15533 2.25169,-37.17204 -1.1087,-0.6852 -3.37069,0.38669 -5.02667,2.38198 -1.65588,1.9953 -4.90183,3.62784 -7.21316,3.62784 -3.86273,0 -4.14082,3.88902 -3.44064,48.1197 0.41897,26.46584 0.79969,48.39381 0.84605,48.72882 0.30865,2.22966 14.70297,0.0322 14.70297,-2.2446 z m 90.11101,-1.41006 c -0.0716,-3.5134 -4.13377,-8.24672 -7.51593,-8.75803 -1.87592,-0.2836 -4.78125,-1.37182 -6.4563,-2.41827 -2.11795,-1.32311 -3.04556,-0.12718 -3.04556,3.92623 0,3.20584 0.73094,6.55975 1.62431,7.4531 2.23243,2.23246 15.43965,2.05825 15.39348,-0.20296 z m 92.62205,-2.90175 c 0,-2.601 -1.14964,-5.43963 -2.55476,-6.30802 -1.66309,-1.02786 -1.73104,-2.57142 -0.19467,-4.42261 1.29801,-1.56402 2.04098,-7.77071 1.65105,-13.79261 -0.96804,-14.94988 -1.00932,-15.09436 -3.81422,-13.36083 -1.3619,0.84169 -1.89221,2.47525 -1.17848,3.6301 0.71373,1.15485 0.25919,2.74158 -1.01013,3.52604 -1.26931,0.78448 -3.10748,0.13254 -4.08483,-1.44893 -1.03627,-1.67671 0.85852,-5.1422 4.54552,-8.31365 6.27934,-5.40124 6.28616,-5.44629 0.99955,-6.59693 -2.92765,-0.6372 -7.22498,-1.95863 -9.54961,-2.93649 -3.82952,-1.6109 -4.18692,0.0897 -3.80389,18.10041 0.23244,10.93312 1.36545,20.46101 2.51762,21.17309 1.15217,0.71207 0.82254,2.8277 -0.73249,4.7014 -4.78419,5.7646 -0.78134,10.77811 8.60534,10.77811 6.89249,0 8.604,-0.94071 8.604,-4.72908 z m 93.9464,1.24234 c 4.60682,-3.39635 4.57717,-3.54364 -1.14352,-5.68042 -5.03286,-1.87983 -5.27217,-2.42418 -1.67291,-3.80535 2.31004,-0.88645 3.48798,-2.76388 2.61766,-4.17209 -0.87032,-1.40822 -0.52659,-3.88286 0.76383,-5.49919 2.67625,-3.35225 2.3134,-26.06836 -0.48883,-30.60248 -1.02157,-1.65293 -0.67611,-4.42867 0.76765,-6.16831 1.44379,-1.73967 1.90364,-3.88442 1.02192,-4.76617 -2.50401,-2.504 -14.95083,-1.88025 -16.62788,0.83329 -0.8282,1.34004 -0.12548,2.43644 1.56171,2.43644 2.38586,0 2.4178,0.64973 0.14375,2.92373 -4.41858,4.41858 -3.53118,6.81304 2.55826,6.90309 l 5.48199,0.0811 -5.50813,4.59442 -5.50814,4.59442 6.4892,5.10439 c 3.56906,2.80744 6.04773,5.47556 5.50813,5.92918 -0.53957,0.45364 -3.17385,2.01062 -5.85394,3.45999 -5.21189,2.81854 -6.79674,14.76738 -2.43644,18.36956 1.57845,1.30401 1.36394,2.44799 -0.60911,3.24858 -1.67505,0.6797 -3.04555,2.24082 -3.04555,3.46918 0,3.46998 10.71327,2.62972 15.9803,-1.25333 z m 88.78665,-8.69547 c 0,-1.34004 -3.2892,-2.43644 -7.30932,-2.43644 -4.02013,0 -7.30933,1.0964 -7.30933,2.43644 0,1.34005 3.2892,2.43645 7.30933,2.43645 4.02012,0 7.30932,-1.0964 7.30932,-2.43645 z m -275.47108,-5.90642 c 1.81218,-2.18351 2.2648,-6.74835 1.22088,-12.31291 -1.35654,-7.23095 -2.60436,-8.70806 -6.84528,-8.10312 -8.31645,1.18633 -8.97051,23.88601 -0.68822,23.88601 1.88805,0 4.72872,-1.56149 6.31262,-3.46998 z m 272.74611,-0.79379 c -0.15861,-1.00503 -0.0219,-2.64963 0.30456,-3.65466 0.32619,-1.00503 0.82481,-2.64963 1.10807,-3.65466 0.28323,-1.00503 1.41706,-3.89506 2.51962,-6.42226 2.33038,-5.34151 -1.15419,-12.10687 -6.80951,-13.22079 -2.24991,-0.44314 -5.35086,2.1191 -7.42959,6.13893 -3.04655,5.89136 -3.08431,8.04956 -0.25853,14.77014 1.82015,4.32885 5.00689,7.87063 7.08164,7.87063 2.07475,0 3.64243,-0.8223 3.48374,-1.82733 z"
   id="path6949"
   inkscape:connector-curvature="0" /><path
   style="fill:#483737;fill-opacity:1;stroke:#bcbcbc;stroke-width:0;stroke-miterlimit:4;stroke-dasharray:none;stroke-opacity:1"
   d="m 432.71961,479.36456 c -12.11901,-1.23795 -21.06074,-5.39694 -29.29008,-13.62345 -8.90341,-8.90035 -14.1813,-21.08292 -14.1813,-32.73365 0,-11.72022 5.26285,-23.91531 14.11476,-32.70671 9.51392,-9.4489 19.26821,-13.54985 32.37156,-13.60983 12.86922,-0.0589 24.01405,4.5283 33.1165,13.63075 18.19627,18.19627 18.02529,47.65721 -0.38176,65.7807 -9.3014,9.1581 -23.68615,14.49446 -35.74968,13.26219 z m 20.70155,-38.56044 c 2.76114,-1.15367 3.75971,-2.86073 2.44341,-4.17703 -0.29912,-0.29912 -1.35446,0.0239 -2.3452,0.71784 -2.93494,2.05572 -7.05711,1.59953 -9.10818,-1.00799 -3.57156,-4.5405 -0.97801,-12.38066 4.09171,-12.36899 1.2685,0.003 3.38986,0.57046 4.71414,1.26121 2.11123,1.10123 2.46738,1.10057 2.89175,-0.005 0.31024,-0.80845 1.68775,-1.26118 3.83746,-1.26118 h 3.35348 v 8.61412 c 0,8.03984 0.11486,8.61412 1.72283,8.61412 1.60796,0 1.72282,-0.57428 1.72282,-8.61412 v -8.61412 h 3.44565 c 2.48852,0 3.44564,-0.35892 3.44564,-1.29212 0,-1.06241 -1.5314,-1.29212 -8.61411,-1.29212 -5.36366,0 -8.61412,0.33649 -8.61412,0.89172 0,0.59179 -0.60555,0.56764 -1.80033,-0.0718 -2.31561,-1.23928 -8.72256,-1.24205 -11.03444,-0.005 -3.90827,2.09164 -5.6666,9.93795 -3.29202,14.69025 1.12532,2.25213 5.98276,5.16483 8.6171,5.16713 0.84433,7.4e-4 2.87941,-0.56034 4.52241,-1.24683 z m -37.80324,-1.27262 c 3.61206,-2.2025 5.03864,-6.47543 3.75432,-11.24502 -1.28767,-4.78207 -4.79089,-6.90055 -11.41822,-6.90486 l -4.95312,-0.003 v 9.90624 9.90624 l 4.95312,-0.003 c 3.36266,-0.002 5.82355,-0.53398 7.6639,-1.65616 z m 20.97804,0.36726 c 0,-0.99193 -1.10069,-1.29212 -4.73776,-1.29212 h -4.73777 v -3.44565 -3.44564 h 4.73777 c 3.63707,0 4.73776,-0.30019 4.73776,-1.29212 0,-0.99193 -1.10069,-1.29212 -4.73776,-1.29212 -4.68991,0 -4.73777,-0.0261 -4.73777,-2.58424 0,-2.55813 0.0479,-2.58423 4.73777,-2.58423 3.63707,0 4.73776,-0.30019 4.73776,-1.29212 0,-1.03369 -1.29211,-1.29212 -6.46059,-1.29212 h -6.46058 v 9.90624 9.90624 h 6.46058 c 5.16848,0 6.46059,-0.25843 6.46059,-1.29212 z"
   id="path6951"
   inkscape:connector-curvature="0" /><path
   style="fill:#483737;fill-opacity:1;stroke:#bcbcbc;stroke-width:0;stroke-miterlimit:4;stroke-dasharray:none;stroke-opacity:1"
   d="m 573.03258,473.07266 c -9.85574,-1.46349 -19.72372,-6.46568 -26.5418,-13.45433 -17.33423,-17.76789 -17.95323,-45.57288 -1.41345,-63.49117 9.84208,-10.66237 20.42734,-15.35858 34.62734,-15.36259 13.74283,-0.004 24.44592,4.69692 33.86944,14.87544 26.31477,28.42309 7.85285,74.73964 -30.96883,77.69339 -2.84266,0.21628 -7.15038,0.099 -9.5727,-0.26074 z m -19.73525,-42.98486 1.78646,-7.22672 1.72277,7.22672 c 1.45592,6.10736 2.01222,7.26839 3.5915,7.49574 1.55693,0.22414 2.02818,-0.35077 2.82438,-3.44564 1.00005,-3.88726 3.2303,-12.11456 3.98424,-14.69767 0.31665,-1.08492 -0.0499,-1.50747 -1.30769,-1.50747 -1.29652,0 -1.96363,0.83387 -2.58429,3.23029 -0.46014,1.77666 -1.31385,4.97465 -1.89712,7.10665 l -1.06049,3.87635 -1.74656,-7.10665 c -1.51368,-6.15909 -1.99377,-7.10664 -3.60063,-7.10664 -1.63486,0 -2.04292,0.89114 -3.45132,7.53735 l -1.59726,7.53735 -1.0705,-3.87635 c -0.58878,-2.13199 -1.49608,-5.5238 -2.01623,-7.53735 -0.70815,-2.74131 -1.37018,-3.661 -2.63535,-3.661 -0.92929,0 -1.68962,0.1047 -1.68962,0.23266 0,0.12797 0.74199,2.93832 1.64887,6.24524 0.90688,3.30691 2.09123,7.68417 2.63189,9.72724 0.81381,3.07523 1.30126,3.66835 2.83175,3.44564 1.54745,-0.22518 2.13987,-1.44675 3.6352,-7.49574 z m 33.91663,5.07319 c 0.82505,-2.36673 1.23468,-2.58423 4.86685,-2.58423 3.63217,0 4.04179,0.2175 4.86684,2.58423 0.58973,1.69172 1.48682,2.58424 2.59747,2.58424 1.93822,0 2.01986,0.41003 -2.31544,-11.62906 -2.42192,-6.72564 -3.07742,-7.78755 -4.94798,-8.01572 -2.00841,-0.24497 -2.37674,0.34554 -5.37311,8.61412 l -3.21689,8.87713 -5.06562,-0.29187 -5.06563,-0.29186 v -8.53761 c 0,-7.96333 -0.11588,-8.5376 -1.72282,-8.5376 -1.62295,0 -1.72283,0.57427 -1.72283,9.90623 v 9.90624 h 8.09915 8.09914 z m 19.26317,-5.29613 0.24768,-7.88037 4.15037,7.88037 c 3.49439,6.63483 4.48148,7.88037 6.24524,7.88037 h 2.09486 v -9.90624 c 0,-9.33196 -0.0999,-9.90623 -1.72282,-9.90623 -1.58122,0 -1.72526,0.58412 -1.75238,7.10664 l -0.0296,7.10665 -3.63145,-6.89129 c -3.05168,-5.79109 -4.00965,-6.93482 -6.00033,-7.16387 l -2.36888,-0.27257 v 9.96345 c 0,8.16851 0.22695,9.96346 1.25979,9.96346 0.99559,0 1.31173,-1.65264 1.50747,-7.88037 z"
   id="path6953"
   inkscape:connector-curvature="0" /><path
   style="fill:#483737;fill-opacity:1;stroke:#bcbcbc;stroke-width:0;stroke-miterlimit:4;stroke-dasharray:none;stroke-opacity:1"
   d="m 406.44655,431.18877 v -7.41787 l 3.23029,0.58708 c 4.39738,0.79918 6.5898,3.13445 6.5898,7.01915 0,3.83868 -3.41634,7.22951 -7.28389,7.22951 h -2.5362 z"
   id="path6955"
   inkscape:connector-curvature="0" /><path
   style="fill:#483737;fill-opacity:1;stroke:#bcbcbc;stroke-width:0;stroke-miterlimit:4;stroke-dasharray:none;stroke-opacity:1"
   d="m 590.49124,426.11617 c 0.72645,-2.132 1.44175,-3.87636 1.58957,-3.87636 0.14781,0 0.86312,1.74436 1.58956,3.87636 l 1.32081,3.87635 h -2.91037 -2.91037 z"
   id="path6957"
   inkscape:connector-curvature="0" /></svg>